# xmcd
#
# Track frame offsets: 
#        150
#        14210
#        30162
#        45925
#        61682
#        74822
#        76787
#        87587
#        101032
#        110692
#        122082
#        140420
#
# Disc length: 2016 seconds
#
# Revision: 0
# Processed by: cddbd v1.5.2PL0 Copyright (c) Steve Scherf et al.
# Submitted via: ExactAudioCopyFreeDBPlugin 1.0
#
DISCID=9f07de0c
DTITLE=Wesley Dennis - Country to the Core
DYEAR=1999
DGENRE=Country
TTITLE0=Moaning
TTITLE1=My Love
TTITLE2=My Old Friend
TTITLE3=Pieces of You
TTITLE4=You Oughta Try It
TTITLE5=Shortest Song In the World
TTITLE6=Dear Hunting
TTITLE7=How Do I Talk To An Angel
TTITLE8=That's What I Love
TTITLE9=All Right
TTITLE10=Crazy For You
TTITLE11=A New Fire To An Old Flame
EXTD=
EXTT0=
EXTT1=
EXTT2=
EXTT3=
EXTT4=
EXTT5=
EXTT6=
EXTT7=
EXTT8=
EXTT9=
EXTT10=
EXTT11=
PLAYORDER=
